<svg contentscripttype="text/ecmascript" zoomAndPan="magnify" contentstyletype="text/css" version="1.0" width="525.25px" preserveAspectRatio="xMidYMid meet" viewBox="-10.0 -5.0 525.25 327.4794446563721" height="327.4794446563721px" class="syntaxdiagram"><defs><style type="text/css" xml:space="preserve">
.arrow, .syntaxarrow { fill: none; stroke: black; }
.arrowheadStartEnd, .arrowheadRepSep, .arrowheadRepSepReturn { stroke: black; fill: black; }
.arrowheadSeq, .arrowheadStartChoice, .arrowheadAfterChoice, .arrowheadStartRepGroup, .arrowheadEndRepGroup, .arrowheadRev { stroke: none; fill: none; }
rect { fill: none; stroke: none; }
rect.fragref,rect.syntaxfragref { fill: none; stroke: black; }
text {
fill: #000000;
fill-opacity: 1;
font-family: IBM Plex Sans,Arial Unicode MS,Arial,Helvetica;
font-style: normal;
font-weight: normal;
font-size: 8pt;
stroke: #000000;
stroke-width: 0.1;
}
text.var, text.syntaxvar {font-style:italic;}
</style></defs><text class="syntaxkwd" x="19.0" y="36.57">DELAY</text><rect rx="3" x="15.0" width="40.283156108856204" height="15.44444465637207" y="25.12" class="syntaxgroupcomp" /><text class="syntaxkwd" x="184.14" y="17.11">INTERVAL(</text><text class="syntaxvar" x="239.37" y="17.11"> 0</text><text class="syntaxdelim" x="246.89" y="17.11">)</text><rect rx="3" x="180.14" width="73.63331013917923" height="17.56944465637207" y="5.0" class="syntaxgroupcomp" /><text class="syntaxkwd" x="166.22" y="56.68">INTERVAL(</text><text class="syntaxvar" x="221.46" y="56.68"> hhmmss</text><text class="syntaxdelim" x="264.81" y="56.68">)</text><rect rx="3" x="162.22" width="109.46471034288408" height="17.56944465637207" y="44.57" class="syntaxgroupcomp" /><text class="syntaxkwd" x="178.81" y="80.25">TIME(</text><text class="syntaxvar" x="208.87" y="80.25"> hhmmss</text><text class="syntaxdelim" x="252.22" y="80.25">)</text><rect rx="3" x="174.81" width="84.29035311937332" height="17.56944465637207" y="68.14" class="syntaxgroupcomp" /><text class="syntaxkwd" x="97.12" y="134.71">FOR</text><rect rx="3" x="93.12" width="27.706908321380617" height="15.70138931274414" y="123.14" class="syntaxkwd" /><text class="syntaxkwd" x="189.15" y="134.71">HOURS(</text><text class="syntaxvar" x="229.02" y="134.71"> data-value</text><text class="syntaxdelim" x="284.58" y="134.71">)</text><rect rx="3" x="185.15" width="106.30573817491532" height="17.56944465637207" y="122.6" class="syntaxgroupcomp" /><text class="syntaxkwd" x="183.45" y="158.28">MINUTES(</text><text class="syntaxvar" x="234.73" y="158.28"> data-value</text><text class="syntaxdelim" x="290.29" y="158.28">)</text><rect rx="3" x="179.45" width="117.71590052843095" height="17.56944465637207" y="146.17" class="syntaxgroupcomp" /><text class="syntaxkwd" x="182.49" y="181.85">SECONDS(</text><text class="syntaxvar" x="235.68" y="181.85"> data-value</text><text class="syntaxdelim" x="291.24" y="181.85">)</text><rect rx="3" x="178.49" width="119.62078791856766" height="17.56944465637207" y="169.74" class="syntaxgroupcomp" /><text class="syntaxkwd" x="179.82" y="205.42">MILLISECS(</text><text class="syntaxvar" x="238.35" y="205.42"> data-value</text><text class="syntaxdelim" x="293.91" y="205.42">)</text><rect rx="3" x="175.82" width="124.96062575578691" height="17.56944465637207" y="193.31" class="syntaxgroupcomp" /><line y2="131.71" x1="155.82" x2="185.15" class="syntaxarrow" y1="131.71" /><polygon class="arrowheadStartChoice" points="185.15,131.71 180.15,134.21 180.15,129.21" /><line y2="131.71" x1="291.46" x2="320.79" class="syntaxarrow" y1="131.71" /><polygon class="arrowheadAfterChoice" points="315.79,131.71 310.79,134.21 310.79,129.21" /><path class="syntaxarrow" d="M 155.82,131.71 160.82,131.71 160.82,136.71 160.82,150.28 160.82,155.28 165.82,155.28 179.45,155.28" /><polygon class="arrowheadStartChoice" points="179.45,155.28 174.45,157.78 174.45,152.78" /><path class="syntaxarrow" d="M 297.16,155.28 310.79,155.28 315.79,155.28 315.79,150.28 315.79,136.71 315.79,131.71 320.79,131.71" /><polygon class="arrowheadAfterChoice" points="315.79,136.71 310.79,139.21 310.79,134.21" /><path class="syntaxarrow" d="M 155.82,131.71 160.82,131.71 160.82,136.71 160.82,173.85 160.82,178.85 165.82,178.85 178.49,178.85" /><polygon class="arrowheadStartChoice" points="178.49,178.85 173.49,181.35 173.49,176.35" /><path class="syntaxarrow" d="M 298.12,178.85 310.79,178.85 315.79,178.85 315.79,173.85 315.79,136.71 315.79,131.71 320.79,131.71" /><polygon class="arrowheadAfterChoice" points="315.79,136.71 310.79,139.21 310.79,134.21" /><path class="syntaxarrow" d="M 155.82,131.71 160.82,131.71 160.82,136.71 160.82,197.42 160.82,202.42 165.82,202.42 175.82,202.42" /><polygon class="arrowheadStartChoice" points="175.82,202.42 170.82,204.92 170.82,199.92" /><path class="syntaxarrow" d="M 300.79,202.42 310.79,202.42 315.79,202.42 315.79,197.42 315.79,136.71 315.79,131.71 320.79,131.71" /><polygon class="arrowheadAfterChoice" points="315.79,136.71 310.79,139.21 310.79,134.21" /><line y2="131.71" x1="135.82" x2="155.82" class="syntaxarrow" y1="131.71" /><polygon class="arrowheadStartRepGroup" points="155.82,131.71 150.82,134.21 150.82,129.21" /><line y2="131.71" x1="320.79" x2="340.79" class="syntaxarrow" y1="131.71" /><polygon class="arrowheadEndRepGroup" points="330.79,131.71 325.79,134.21 325.79,129.21" /><path class="syntaxarrow" d="M 330.79,131.71 340.79,131.71 340.79,121.71 340.79,106.71 340.79,96.71 330.79,96.71 238.31,96.71" /><polygon class="arrowheadRepSep" points="238.31,96.71 233.31,99.21 233.31,94.21" /><path class="syntaxarrow" d="M 238.31,96.71 145.82,96.71 135.82,96.71 135.82,106.71 135.82,121.71 135.82,131.71 145.82,131.71" /><polygon class="arrowheadRepSepReturn" points="135.82,121.71 130.82,124.21 130.82,119.21" /><line y2="131.71" x1="120.82" x2="135.82" class="syntaxarrow" y1="131.71" /><polygon class="arrowheadSeq" points="135.82,131.71 130.82,134.21 130.82,129.21" /><text class="syntaxkwd" x="94.28" y="259.88">UNTIL</text><rect rx="3" x="90.28" width="38.71625108718872" height="15.572916984558105" y="248.43" class="syntaxkwd" /><text class="syntaxkwd" x="194.66" y="259.88">HOURS(</text><text class="syntaxvar" x="234.53" y="259.88"> data-value</text><text class="syntaxdelim" x="290.09" y="259.88">)</text><rect rx="3" x="190.66" width="106.30573817491532" height="17.56944465637207" y="247.77" class="syntaxgroupcomp" /><text class="syntaxkwd" x="188.95" y="283.45">MINUTES(</text><text class="syntaxvar" x="240.23" y="283.45"> data-value</text><text class="syntaxdelim" x="295.79" y="283.45">)</text><rect rx="3" x="184.95" width="117.71590052843095" height="17.56944465637207" y="271.34" class="syntaxgroupcomp" /><text class="syntaxkwd" x="188.0" y="307.02">SECONDS(</text><text class="syntaxvar" x="241.19" y="307.02"> data-value</text><text class="syntaxdelim" x="296.74" y="307.02">)</text><rect rx="3" x="184.0" width="119.62078791856766" height="17.56944465637207" y="294.91" class="syntaxgroupcomp" /><line y2="256.88" x1="164.0" x2="190.66" class="syntaxarrow" y1="256.88" /><polygon class="arrowheadStartChoice" points="190.66,256.88 185.66,259.38 185.66,254.38" /><line y2="256.88" x1="296.96" x2="323.62" class="syntaxarrow" y1="256.88" /><polygon class="arrowheadAfterChoice" points="318.62,256.88 313.62,259.38 313.62,254.38" /><path class="syntaxarrow" d="M 164.0,256.88 169.0,256.88 169.0,261.88 169.0,275.45 169.0,280.45 174.0,280.45 184.95,280.45" /><polygon class="arrowheadStartChoice" points="184.95,280.45 179.95,282.95 179.95,277.95" /><path class="syntaxarrow" d="M 302.67,280.45 313.62,280.45 318.62,280.45 318.62,275.45 318.62,261.88 318.62,256.88 323.62,256.88" /><polygon class="arrowheadAfterChoice" points="318.62,261.88 313.62,264.38 313.62,259.38" /><path class="syntaxarrow" d="M 164.0,256.88 169.0,256.88 169.0,261.88 169.0,299.02 169.0,304.02 174.0,304.02 184.0,304.02" /><polygon class="arrowheadStartChoice" points="184.0,304.02 179.0,306.52 179.0,301.52" /><path class="syntaxarrow" d="M 303.62,304.02 313.62,304.02 318.62,304.02 318.62,299.02 318.62,261.88 318.62,256.88 323.62,256.88" /><polygon class="arrowheadAfterChoice" points="318.62,261.88 313.62,264.38 313.62,259.38" /><line y2="256.88" x1="144.0" x2="164.0" class="syntaxarrow" y1="256.88" /><polygon class="arrowheadStartRepGroup" points="164.0,256.88 159.0,259.38 159.0,254.38" /><line y2="256.88" x1="323.62" x2="343.62" class="syntaxarrow" y1="256.88" /><polygon class="arrowheadEndRepGroup" points="333.62,256.88 328.62,259.38 328.62,254.38" /><path class="syntaxarrow" d="M 333.62,256.88 343.62,256.88 343.62,246.88 343.62,231.88 343.62,221.88 333.62,221.88 243.81,221.88" /><polygon class="arrowheadRepSep" points="243.81,221.88 238.81,224.38 238.81,219.38" /><path class="syntaxarrow" d="M 243.81,221.88 154.0,221.88 144.0,221.88 144.0,231.88 144.0,246.88 144.0,256.88 154.0,256.88" /><polygon class="arrowheadRepSepReturn" points="144.0,246.88 139.0,249.38 139.0,244.38" /><line y2="256.88" x1="129.0" x2="144.0" class="syntaxarrow" y1="256.88" /><polygon class="arrowheadSeq" points="144.0,256.88 139.0,259.38 139.0,254.38" /><line y2="33.57" x1="70.28" x2="216.95" class="syntaxarrow" y1="33.57" /><line y2="33.57" x1="216.95" x2="363.62" class="syntaxarrow" y1="33.57" /><polygon class="arrowheadAfterChoice" points="358.62,33.57 353.62,36.07 353.62,31.07" /><path class="syntaxarrow" d="M 70.28,33.57 75.28,33.57 75.28,28.57 75.28,19.11 75.28,14.11 80.28,14.11 180.14,14.11" /><polygon class="arrowheadStartChoice" points="180.14,14.11 175.14,16.61 175.14,11.61" /><path class="syntaxarrow" d="M 253.77,14.11 353.62,14.11 358.62,14.11 358.62,19.11 358.62,28.57 358.62,33.57 363.62,33.57" /><polygon class="arrowheadAfterChoice" points="358.62,28.57 353.62,31.07 353.62,26.07" /><path class="syntaxarrow" d="M 70.28,33.57 75.28,33.57 75.28,38.57 75.28,48.68 75.28,53.68 80.28,53.68 162.22,53.68" /><polygon class="arrowheadStartChoice" points="162.22,53.68 157.22,56.18 157.22,51.18" /><path class="syntaxarrow" d="M 271.68,53.68 353.62,53.68 358.62,53.68 358.62,48.68 358.62,38.57 358.62,33.57 363.62,33.57" /><polygon class="arrowheadAfterChoice" points="358.62,38.57 353.62,41.07 353.62,36.07" /><path class="syntaxarrow" d="M 70.28,33.57 75.28,33.57 75.28,38.57 75.28,72.25 75.28,77.25 80.28,77.25 174.81,77.25" /><polygon class="arrowheadStartChoice" points="174.81,77.25 169.81,79.75 169.81,74.75" /><path class="syntaxarrow" d="M 259.1,77.25 353.62,77.25 358.62,77.25 358.62,72.25 358.62,38.57 358.62,33.57 363.62,33.57" /><polygon class="arrowheadAfterChoice" points="358.62,38.57 353.62,41.07 353.62,36.07" /><path class="syntaxarrow" d="M 70.28,33.57 75.28,33.57 75.28,38.57 75.28,126.71 75.28,131.71 80.28,131.71 93.12,131.71" /><polygon class="arrowheadStartChoice" points="93.12,131.71 88.12,134.21 88.12,129.21" /><path class="syntaxarrow" d="M 340.79,131.71 353.62,131.71 358.62,131.71 358.62,126.71 358.62,38.57 358.62,33.57 363.62,33.57" /><polygon class="arrowheadAfterChoice" points="358.62,38.57 353.62,41.07 353.62,36.07" /><path class="syntaxarrow" d="M 70.28,33.57 75.28,33.57 75.28,38.57 75.28,251.88 75.28,256.88 80.28,256.88 90.28,256.88" /><polygon class="arrowheadStartChoice" points="90.28,256.88 85.28,259.38 85.28,254.38" /><path class="syntaxarrow" d="M 343.62,256.88 353.62,256.88 358.62,256.88 358.62,251.88 358.62,38.57 358.62,33.57 363.62,33.57" /><polygon class="arrowheadAfterChoice" points="358.62,38.57 353.62,41.07 353.62,36.07" /><text class="syntaxkwd" x="402.62" y="56.68">REQID(</text><text class="syntaxvar" x="439.0" y="56.68"> name</text><text class="syntaxdelim" x="468.38" y="56.68">)</text><rect rx="3" x="398.62" width="76.63235541582108" height="17.85763931274414" y="44.57" class="syntaxgroupcomp" /><line y2="33.57" x1="378.62" x2="436.94" class="syntaxarrow" y1="33.57" /><line y2="33.57" x1="436.94" x2="495.25" class="syntaxarrow" y1="33.57" /><polygon class="arrowheadAfterChoice" points="490.25,33.57 485.25,36.07 485.25,31.07" /><path class="syntaxarrow" d="M 378.62,33.57 383.62,33.57 383.62,38.57 383.62,48.68 383.62,53.68 388.62,53.68 398.62,53.68" /><polygon class="arrowheadStartChoice" points="398.62,53.68 393.62,56.18 393.62,51.18" /><path class="syntaxarrow" d="M 475.25,53.68 485.25,53.68 490.25,53.68 490.25,48.68 490.25,38.57 490.25,33.57 495.25,33.57" /><polygon class="arrowheadAfterChoice" points="490.25,38.57 485.25,41.07 485.25,36.07" /><polygon class="arrowheadStartEnd" points="5.0,33.57 0.0,36.07 0.0,31.07" /><polygon class="arrowheadStartEnd" points="10.0,33.57 5.0,36.07 5.0,31.07" /><line y2="33.57" x1="5.0" x2="15.0" class="syntaxarrow" y1="33.57" /><line y2="33.57" x1="55.28" x2="70.28" class="syntaxarrow" y1="33.57" /><polygon class="arrowheadSeq" points="70.28,33.57 65.28,36.07 65.28,31.07" /><line y2="33.57" x1="363.62" x2="378.62" class="syntaxarrow" y1="33.57" /><polygon class="arrowheadSeq" points="378.62,33.57 373.62,36.07 373.62,31.07" /><line y2="33.57" x1="495.25" x2="505.25" class="syntaxarrow" y1="33.57" /><polygon class="arrowheadStartEnd" points="505.25,33.57 500.25,36.07 500.25,31.07" /><polygon class="arrowheadStartEnd" points="505.25,33.57 500.25,36.07 500.25,31.07" /></svg>