<svg contentscripttype="text/ecmascript" zoomAndPan="magnify" contentstyletype="text/css" version="1.0" width="644.3px" preserveAspectRatio="xMidYMid meet" viewBox="-10.0 -5.0 644.3 225.64944465637208" height="225.64944465637208px" class="syntaxdiagram"><defs><style type="text/css" xml:space="preserve">
.arrow, .syntaxarrow { fill: none; stroke: black; }
.arrowheadStartEnd, .arrowheadRepSep, .arrowheadRepSepReturn { stroke: black; fill: black; }
.arrowheadSeq, .arrowheadStartChoice, .arrowheadAfterChoice, .arrowheadStartRepGroup, .arrowheadEndRepGroup, .arrowheadRev { stroke: none; fill: none; }
rect { fill: none; stroke: none; }
rect.fragref,rect.syntaxfragref { fill: none; stroke: black; }
text {
fill: #000000;
fill-opacity: 1;
font-family: IBM Plex Sans,Arial Unicode MS,Arial,Helvetica;
font-style: normal;
font-weight: normal;
font-size: 8pt;
stroke: #000000;
stroke-width: 0.1;
}
text.var, text.syntaxvar {font-style:italic;}
</style></defs><text class="syntaxkwd" x="19.0" y="17.11">CONVERSE</text><rect rx="3" x="15.0" width="62.97977104187012" height="15.70138931274414" y="5.53" class="syntaxgroupcomp" /><text class="syntaxkwd" x="96.98" y="17.11">FROM(</text><text class="syntaxvar" x="130.19" y="17.11"> data-area</text><text class="syntaxdelim" x="181.45" y="17.11">)</text><rect rx="3" x="92.98" width="95.34480706453323" height="17.56944465637207" y="5.0" class="syntaxgroupcomp" /><text class="syntaxkwd" x="230.45" y="17.11">FROMLENGTH(</text><text class="syntaxvar" x="305.82" y="17.11"> data-value</text><text class="syntaxdelim" x="361.38" y="17.11">)</text><rect rx="3" x="226.45" width="141.80152121782302" height="17.56944465637207" y="5.0" class="syntaxgroupcomp" /><text class="syntaxkwd" x="227.32" y="40.68">FROMFLENGTH(</text><text class="syntaxvar" x="308.95" y="40.68"> data-value</text><text class="syntaxdelim" x="364.51" y="40.68">)</text><rect rx="3" x="223.32" width="148.0608740925789" height="17.56944465637207" y="28.57" class="syntaxgroupcomp" /><line y2="14.11" x1="203.32" x2="226.45" class="syntaxarrow" y1="14.11" /><polygon class="arrowheadStartChoice" points="226.45,14.11 221.45,16.61 221.45,11.61" /><line y2="14.11" x1="368.26" x2="391.39" class="syntaxarrow" y1="14.11" /><polygon class="arrowheadAfterChoice" points="386.39,14.11 381.39,16.61 381.39,11.61" /><path class="syntaxarrow" d="M 203.32,14.11 208.32,14.11 208.32,19.11 208.32,32.68 208.32,37.68 213.32,37.68 223.32,37.68" /><polygon class="arrowheadStartChoice" points="223.32,37.68 218.32,40.18 218.32,35.18" /><path class="syntaxarrow" d="M 371.39,37.68 381.39,37.68 386.39,37.68 386.39,32.68 386.39,19.11 386.39,14.11 391.39,14.11" /><polygon class="arrowheadAfterChoice" points="386.39,19.11 381.39,21.61 381.39,16.61" /><text class="syntaxkwd" x="430.39" y="17.11">INTO(</text><text class="syntaxvar" x="460.25" y="17.11"> data-area</text><text class="syntaxdelim" x="511.51" y="17.11">)</text><rect rx="3" x="426.39" width="91.99914170503617" height="17.56944465637207" y="5.0" class="syntaxgroupcomp" /><text class="syntaxkwd" x="442.26" y="40.68">SET(</text><text class="syntaxvar" x="465.04" y="40.68"> ptr-ref</text><text class="syntaxdelim" x="499.63" y="40.68">)</text><rect rx="3" x="438.26" width="68.24679900407791" height="18.239583492279053" y="28.57" class="syntaxgroupcomp" /><line y2="14.11" x1="406.39" x2="426.39" class="syntaxarrow" y1="14.11" /><polygon class="arrowheadStartChoice" points="426.39,14.11 421.39,16.61 421.39,11.61" /><line y2="14.11" x1="518.38" x2="538.38" class="syntaxarrow" y1="14.11" /><polygon class="arrowheadAfterChoice" points="533.38,14.11 528.38,16.61 528.38,11.61" /><path class="syntaxarrow" d="M 406.39,14.11 411.39,14.11 411.39,19.11 411.39,32.68 411.39,37.68 416.39,37.68 438.26,37.68" /><polygon class="arrowheadStartChoice" points="438.26,37.68 433.26,40.18 433.26,35.18" /><path class="syntaxarrow" d="M 506.51,37.68 528.38,37.68 533.38,37.68 533.38,32.68 533.38,19.11 533.38,14.11 538.38,14.11" /><polygon class="arrowheadAfterChoice" points="533.38,19.11 528.38,21.61 528.38,16.61" /><text class="syntaxkwd" x="77.13" y="73.92">TOLENGTH(</text><text class="syntaxvar" x="137.18" y="73.92"> data-area</text><text class="syntaxdelim" x="188.44" y="73.92">)</text><rect rx="3" x="73.13" width="122.1847691655159" height="17.56944465637207" y="61.81" class="syntaxgroupcomp" /><text class="syntaxkwd" x="74.0" y="97.49">TOFLENGTH(</text><text class="syntaxvar" x="140.31" y="97.49"> data-area</text><text class="syntaxdelim" x="191.57" y="97.49">)</text><rect rx="3" x="70.0" width="128.44412204027176" height="17.56944465637207" y="85.38" class="syntaxgroupcomp" /><line y2="70.92" x1="50.0" x2="73.13" class="syntaxarrow" y1="70.92" /><polygon class="arrowheadStartChoice" points="73.13,70.92 68.13,73.42 68.13,68.42" /><line y2="70.92" x1="195.31" x2="218.44" class="syntaxarrow" y1="70.92" /><polygon class="arrowheadAfterChoice" points="213.44,70.92 208.44,73.42 208.44,68.42" /><path class="syntaxarrow" d="M 50.0,70.92 55.0,70.92 55.0,75.92 55.0,89.49 55.0,94.49 60.0,94.49 70.0,94.49" /><polygon class="arrowheadStartChoice" points="70.0,94.49 65.0,96.99 65.0,91.99" /><path class="syntaxarrow" d="M 198.44,94.49 208.44,94.49 213.44,94.49 213.44,89.49 213.44,75.92 213.44,70.92 218.44,70.92" /><polygon class="arrowheadAfterChoice" points="213.44,75.92 208.44,78.42 208.44,73.42" /><text class="syntaxkwd" x="257.44" y="94.02">CTLCHAR(</text><text class="syntaxvar" x="308.78" y="94.02"> data-value</text><text class="syntaxdelim" x="364.34" y="94.02">)</text><rect rx="3" x="253.44" width="117.77372695207596" height="17.56944465637207" y="81.92" class="syntaxgroupcomp" /><line y2="70.92" x1="233.44" x2="312.33" class="syntaxarrow" y1="70.92" /><line y2="70.92" x1="312.33" x2="391.22" class="syntaxarrow" y1="70.92" /><polygon class="arrowheadAfterChoice" points="386.22,70.92 381.22,73.42 381.22,68.42" /><path class="syntaxarrow" d="M 233.44,70.92 238.44,70.92 238.44,75.92 238.44,86.02 238.44,91.02 243.44,91.02 253.44,91.02" /><polygon class="arrowheadStartChoice" points="253.44,91.02 248.44,93.52 248.44,88.52" /><path class="syntaxarrow" d="M 371.22,91.02 381.22,91.02 386.22,91.02 386.22,86.02 386.22,75.92 386.22,70.92 391.22,70.92" /><polygon class="arrowheadAfterChoice" points="386.22,75.92 381.22,78.42 381.22,73.42" /><text class="syntaxkwd" x="430.22" y="93.49">ERASE</text><rect rx="3" x="426.22" width="40.14641466140747" height="15.70138931274414" y="81.92" class="syntaxkwd" /><text class="syntaxkwd" x="512.43" y="112.93">DEFAULT</text><rect rx="3" x="508.43" width="53.79893207550049" height="15.572916984558105" y="101.49" class="syntaxkwd" /><text class="syntaxkwd" x="505.36" y="134.51">ALTERNATE</text><rect rx="3" x="501.36" width="67.93841590881348" height="15.44444465637207" y="123.06" class="syntaxkwd" /><line y2="90.49" x1="481.36" x2="535.33" class="syntaxarrow" y1="90.49" /><line y2="90.49" x1="535.33" x2="589.3" class="syntaxarrow" y1="90.49" /><polygon class="arrowheadAfterChoice" points="584.3,90.49 579.3,92.99 579.3,87.99" /><path class="syntaxarrow" d="M 481.36,90.49 486.36,90.49 486.36,95.49 486.36,104.93 486.36,109.93 491.36,109.93 508.43,109.93" /><polygon class="arrowheadStartChoice" points="508.43,109.93 503.43,112.43 503.43,107.43" /><path class="syntaxarrow" d="M 562.23,109.93 579.3,109.93 584.3,109.93 584.3,104.93 584.3,95.49 584.3,90.49 589.3,90.49" /><polygon class="arrowheadAfterChoice" points="584.3,95.49 579.3,97.99 579.3,92.99" /><path class="syntaxarrow" d="M 481.36,90.49 486.36,90.49 486.36,95.49 486.36,126.51 486.36,131.51 491.36,131.51 501.36,131.51" /><polygon class="arrowheadStartChoice" points="501.36,131.51 496.36,134.01 496.36,129.01" /><path class="syntaxarrow" d="M 569.3,131.51 579.3,131.51 584.3,131.51 584.3,126.51 584.3,95.49 584.3,90.49 589.3,90.49" /><polygon class="arrowheadAfterChoice" points="584.3,95.49 579.3,97.99 579.3,92.99" /><line y2="90.49" x1="466.36" x2="481.36" class="syntaxarrow" y1="90.49" /><polygon class="arrowheadSeq" points="481.36,90.49 476.36,92.99 476.36,87.99" /><line y2="70.92" x1="406.22" x2="507.76" class="syntaxarrow" y1="70.92" /><line y2="70.92" x1="507.76" x2="609.3" class="syntaxarrow" y1="70.92" /><polygon class="arrowheadAfterChoice" points="604.3,70.92 599.3,73.42 599.3,68.42" /><path class="syntaxarrow" d="M 406.22,70.92 411.22,70.92 411.22,75.92 411.22,85.49 411.22,90.49 416.22,90.49 426.22,90.49" /><polygon class="arrowheadStartChoice" points="426.22,90.49 421.22,92.99 421.22,87.99" /><path class="syntaxarrow" d="M 589.3,90.49 599.3,90.49 604.3,90.49 604.3,85.49 604.3,75.92 604.3,70.92 609.3,70.92" /><polygon class="arrowheadAfterChoice" points="604.3,75.92 599.3,78.42 599.3,73.42" /><text class="syntaxkwd" x="74.0" y="181.08">DEFRESP</text><rect rx="3" x="70.0" width="53.79841938018799" height="15.70138931274414" y="169.51" class="syntaxkwd" /><line y2="158.51" x1="50.0" x2="96.9" class="syntaxarrow" y1="158.51" /><line y2="158.51" x1="96.9" x2="143.8" class="syntaxarrow" y1="158.51" /><polygon class="arrowheadAfterChoice" points="138.8,158.51 133.8,161.01 133.8,156.01" /><path class="syntaxarrow" d="M 50.0,158.51 55.0,158.51 55.0,163.51 55.0,173.08 55.0,178.08 60.0,178.08 70.0,178.08" /><polygon class="arrowheadStartChoice" points="70.0,178.08 65.0,180.58 65.0,175.58" /><path class="syntaxarrow" d="M 123.8,178.08 133.8,178.08 138.8,178.08 138.8,173.08 138.8,163.51 138.8,158.51 143.8,158.51" /><polygon class="arrowheadAfterChoice" points="138.8,163.51 133.8,166.01 133.8,161.01" /><text class="syntaxkwd" x="182.8" y="180.95">FMH</text><rect rx="3" x="178.8" width="29.184980869293213" height="15.44444465637207" y="169.51" class="syntaxkwd" /><line y2="158.51" x1="158.8" x2="193.39" class="syntaxarrow" y1="158.51" /><line y2="158.51" x1="193.39" x2="227.98" class="syntaxarrow" y1="158.51" /><polygon class="arrowheadAfterChoice" points="222.98,158.51 217.98,161.01 217.98,156.01" /><path class="syntaxarrow" d="M 158.8,158.51 163.8,158.51 163.8,163.51 163.8,172.95 163.8,177.95 168.8,177.95 178.8,177.95" /><polygon class="arrowheadStartChoice" points="178.8,177.95 173.8,180.45 173.8,175.45" /><path class="syntaxarrow" d="M 207.98,177.95 217.98,177.95 222.98,177.95 222.98,172.95 222.98,163.51 222.98,158.51 227.98,158.51" /><polygon class="arrowheadAfterChoice" points="222.98,163.51 217.98,166.01 217.98,161.01" /><text class="syntaxkwd" x="270.11" y="181.61">MAXLENGTH(</text><text class="syntaxvar" x="338.17" y="181.61"> data-value</text><text class="syntaxdelim" x="393.73" y="181.61">)</text><rect rx="3" x="266.11" width="134.4896208882332" height="17.56944465637207" y="169.51" class="syntaxgroupcomp" /><text class="syntaxkwd" x="266.98" y="205.18">MAXFLENGTH(</text><text class="syntaxvar" x="341.3" y="205.18"> data-value</text><text class="syntaxdelim" x="396.86" y="205.18">)</text><rect rx="3" x="262.98" width="140.74897376298904" height="17.56944465637207" y="193.08" class="syntaxgroupcomp" /><line y2="158.51" x1="242.98" x2="333.36" class="syntaxarrow" y1="158.51" /><line y2="158.51" x1="333.36" x2="423.73" class="syntaxarrow" y1="158.51" /><polygon class="arrowheadAfterChoice" points="418.73,158.51 413.73,161.01 413.73,156.01" /><path class="syntaxarrow" d="M 242.98,158.51 247.98,158.51 247.98,163.51 247.98,173.61 247.98,178.61 252.98,178.61 266.11,178.61" /><polygon class="arrowheadStartChoice" points="266.11,178.61 261.11,181.11 261.11,176.11" /><path class="syntaxarrow" d="M 400.6,178.61 413.73,178.61 418.73,178.61 418.73,173.61 418.73,163.51 418.73,158.51 423.73,158.51" /><polygon class="arrowheadAfterChoice" points="418.73,163.51 413.73,166.01 413.73,161.01" /><path class="syntaxarrow" d="M 242.98,158.51 247.98,158.51 247.98,163.51 247.98,197.18 247.98,202.18 252.98,202.18 262.98,202.18" /><polygon class="arrowheadStartChoice" points="262.98,202.18 257.98,204.68 257.98,199.68" /><path class="syntaxarrow" d="M 403.73,202.18 413.73,202.18 418.73,202.18 418.73,197.18 418.73,163.51 418.73,158.51 423.73,158.51" /><polygon class="arrowheadAfterChoice" points="418.73,163.51 413.73,166.01 413.73,161.01" /><text class="syntaxkwd" x="462.73" y="181.08">NOTRUNCATE</text><rect rx="3" x="458.73" width="78.2287956237793" height="15.70138931274414" y="169.51" class="syntaxkwd" /><line y2="158.51" x1="438.73" x2="497.85" class="syntaxarrow" y1="158.51" /><line y2="158.51" x1="497.85" x2="556.96" class="syntaxarrow" y1="158.51" /><polygon class="arrowheadAfterChoice" points="551.96,158.51 546.96,161.01 546.96,156.01" /><path class="syntaxarrow" d="M 438.73,158.51 443.73,158.51 443.73,163.51 443.73,173.08 443.73,178.08 448.73,178.08 458.73,178.08" /><polygon class="arrowheadStartChoice" points="458.73,178.08 453.73,180.58 453.73,175.58" /><path class="syntaxarrow" d="M 536.96,178.08 546.96,178.08 551.96,178.08 551.96,173.08 551.96,163.51 551.96,158.51 556.96,158.51" /><polygon class="arrowheadAfterChoice" points="551.96,163.51 546.96,166.01 546.96,161.01" /><polygon class="arrowheadStartEnd" points="5.0,14.11 0.0,16.61 0.0,11.61" /><polygon class="arrowheadStartEnd" points="10.0,14.11 5.0,16.61 5.0,11.61" /><line y2="14.11" x1="5.0" x2="15.0" class="syntaxarrow" y1="14.11" /><line y2="14.11" x1="77.98" x2="92.98" class="syntaxarrow" y1="14.11" /><polygon class="arrowheadSeq" points="92.98,14.11 87.98,16.61 87.98,11.61" /><line y2="14.11" x1="188.32" x2="203.32" class="syntaxarrow" y1="14.11" /><polygon class="arrowheadSeq" points="203.32,14.11 198.32,16.61 198.32,11.61" /><line y2="14.11" x1="391.39" x2="406.39" class="syntaxarrow" y1="14.11" /><polygon class="arrowheadSeq" points="406.39,14.11 401.39,16.61 401.39,11.61" /><line y2="14.11" x1="538.38" x2="553.38" class="syntaxarrow" y1="14.11" /><polygon class="arrowheadStartEnd" points="553.38,14.11 548.38,16.61 548.38,11.61" /><polygon class="arrowheadStartEnd" points="35.0,70.92 30.0,73.42 30.0,68.42" /><line y2="70.92" x1="35.0" x2="50.0" class="syntaxarrow" y1="70.92" /><line y2="70.92" x1="218.44" x2="233.44" class="syntaxarrow" y1="70.92" /><polygon class="arrowheadSeq" points="233.44,70.92 228.44,73.42 228.44,68.42" /><line y2="70.92" x1="391.22" x2="406.22" class="syntaxarrow" y1="70.92" /><polygon class="arrowheadSeq" points="406.22,70.92 401.22,73.42 401.22,68.42" /><line y2="70.92" x1="609.3" x2="624.3" class="syntaxarrow" y1="70.92" /><polygon class="arrowheadStartEnd" points="624.3,70.92 619.3,73.42 619.3,68.42" /><polygon class="arrowheadStartEnd" points="35.0,158.51 30.0,161.01 30.0,156.01" /><line y2="158.51" x1="35.0" x2="50.0" class="syntaxarrow" y1="158.51" /><line y2="158.51" x1="143.8" x2="158.8" class="syntaxarrow" y1="158.51" /><polygon class="arrowheadSeq" points="158.8,158.51 153.8,161.01 153.8,156.01" /><line y2="158.51" x1="227.98" x2="242.98" class="syntaxarrow" y1="158.51" /><polygon class="arrowheadSeq" points="242.98,158.51 237.98,161.01 237.98,156.01" /><line y2="158.51" x1="423.73" x2="438.73" class="syntaxarrow" y1="158.51" /><polygon class="arrowheadSeq" points="438.73,158.51 433.73,161.01 433.73,156.01" /><line y2="158.51" x1="556.96" x2="566.96" class="syntaxarrow" y1="158.51" /><polygon class="arrowheadStartEnd" points="566.96,158.51 561.96,161.01 561.96,156.01" /><polygon class="arrowheadStartEnd" points="566.96,158.51 561.96,161.01 561.96,156.01" /><line x1="553.38" y1="14.11" x2="35.0" y2="70.91999999999999" stroke="red" stroke-width="2" class="row-connector" /><line x1="624.3" y1="70.91999999999999" x2="35.0" y2="158.51000000000002" stroke="red" stroke-width="2" class="row-connector" /></svg>