<svg contentscripttype="text/ecmascript" zoomAndPan="magnify" contentstyletype="text/css" version="1.0" width="613.82px" preserveAspectRatio="xMidYMid meet" viewBox="-10.0 -5.0 613.82 150.08958349227905" height="150.08958349227905px" class="syntaxdiagram"><defs><style type="text/css" xml:space="preserve">
.arrow, .syntaxarrow { fill: none; stroke: black; }
.arrowheadStartEnd, .arrowheadRepSep, .arrowheadRepSepReturn { stroke: black; fill: black; }
.arrowheadSeq, .arrowheadStartChoice, .arrowheadAfterChoice, .arrowheadStartRepGroup, .arrowheadEndRepGroup, .arrowheadRev { stroke: none; fill: none; }
rect { fill: none; stroke: none; }
rect.fragref,rect.syntaxfragref { fill: none; stroke: black; }
text {
fill: #000000;
fill-opacity: 1;
font-family: IBM Plex Sans,Arial Unicode MS,Arial,Helvetica;
font-style: normal;
font-weight: normal;
font-size: 8pt;
stroke: #000000;
stroke-width: 0.1;
}
text.var, text.syntaxvar {font-style:italic;}
</style></defs><text class="syntaxkwd" x="19.0" y="34.7">READQ</text><rect rx="3" x="15.0" width="42.62344799041748" height="17.322916984558105" y="23.13" class="syntaxkwd" /><text class="syntaxkwd" x="96.62" y="16.57">TS</text><rect rx="3" x="92.62" width="20.08148078918457" height="15.70138931274414" y="5.0" class="syntaxkwd" /><line y2="31.7" x1="72.62" x2="102.66" class="syntaxarrow" y1="31.7" /><line y2="31.7" x1="102.66" x2="132.7" class="syntaxarrow" y1="31.7" /><polygon class="arrowheadAfterChoice" points="127.7,31.7 122.7,34.2 122.7,29.2" /><path class="syntaxarrow" d="M 72.62,31.7 77.62,31.7 77.62,26.7 77.62,18.57 77.62,13.57 82.62,13.57 92.62,13.57" /><polygon class="arrowheadStartChoice" points="92.62,13.57 87.62,16.07 87.62,11.07" /><path class="syntaxarrow" d="M 112.7,13.57 122.7,13.57 127.7,13.57 127.7,18.57 127.7,26.7 127.7,31.7 132.7,31.7" /><polygon class="arrowheadAfterChoice" points="127.7,26.7 122.7,29.2 122.7,24.2" /><line y2="31.7" x1="57.62" x2="72.62" class="syntaxarrow" y1="31.7" /><polygon class="arrowheadSeq" points="72.62,31.7 67.62,34.2 67.62,29.2" /><text class="syntaxkwd" x="172.94" y="34.7">QUEUE(</text><text class="syntaxvar" x="212.27" y="34.7"> name</text><text class="syntaxdelim" x="241.64" y="34.7">)</text><rect rx="3" x="168.94" width="79.57911578416824" height="17.85763931274414" y="22.59" class="syntaxgroupcomp" /><text class="syntaxkwd" x="171.7" y="58.56">QNAME(</text><text class="syntaxvar" x="213.5" y="58.56"> name</text><text class="syntaxdelim" x="242.88" y="58.56">)</text><rect rx="3" x="167.7" width="82.05374385118485" height="17.85763931274414" y="46.45" class="syntaxgroupcomp" /><line y2="31.7" x1="147.7" x2="168.94" class="syntaxarrow" y1="31.7" /><polygon class="arrowheadStartChoice" points="168.94,31.7 163.94,34.2 163.94,29.2" /><line y2="31.7" x1="248.52" x2="269.76" class="syntaxarrow" y1="31.7" /><polygon class="arrowheadAfterChoice" points="264.76,31.7 259.76,34.2 259.76,29.2" /><path class="syntaxarrow" d="M 147.7,31.7 152.7,31.7 152.7,36.7 152.7,50.56 152.7,55.56 157.7,55.56 167.7,55.56" /><polygon class="arrowheadStartChoice" points="167.7,55.56 162.7,58.06 162.7,53.06" /><path class="syntaxarrow" d="M 249.76,55.56 259.76,55.56 264.76,55.56 264.76,50.56 264.76,36.7 264.76,31.7 269.76,31.7" /><polygon class="arrowheadAfterChoice" points="264.76,36.7 259.76,39.2 259.76,34.2" /><text class="syntaxkwd" x="308.76" y="34.7">INTO(</text><text class="syntaxvar" x="338.62" y="34.7"> data-area</text><text class="syntaxdelim" x="389.88" y="34.7">)</text><rect rx="3" x="304.76" width="91.99914170503617" height="17.56944465637207" y="22.59" class="syntaxgroupcomp" /><text class="syntaxkwd" x="320.63" y="58.27">SET(</text><text class="syntaxvar" x="343.41" y="58.27"> ptr-ref</text><text class="syntaxdelim" x="378.01" y="58.27">)</text><rect rx="3" x="316.63" width="68.24679900407791" height="18.239583492279053" y="46.16" class="syntaxgroupcomp" /><line y2="31.7" x1="284.76" x2="304.76" class="syntaxarrow" y1="31.7" /><polygon class="arrowheadStartChoice" points="304.76,31.7 299.76,34.2 299.76,29.2" /><line y2="31.7" x1="396.76" x2="416.76" class="syntaxarrow" y1="31.7" /><polygon class="arrowheadAfterChoice" points="411.76,31.7 406.76,34.2 406.76,29.2" /><path class="syntaxarrow" d="M 284.76,31.7 289.76,31.7 289.76,36.7 289.76,50.27 289.76,55.27 294.76,55.27 316.63,55.27" /><polygon class="arrowheadStartChoice" points="316.63,55.27 311.63,57.77 311.63,52.77" /><path class="syntaxarrow" d="M 384.88,55.27 406.76,55.27 411.76,55.27 411.76,50.27 411.76,36.7 411.76,31.7 416.76,31.7" /><polygon class="arrowheadAfterChoice" points="411.76,36.7 406.76,39.2 406.76,34.2" /><text class="syntaxkwd" x="455.76" y="54.81">LENGTH(</text><text class="syntaxvar" x="500.68" y="54.81"> data-area</text><text class="syntaxdelim" x="551.94" y="54.81">)</text><rect rx="3" x="451.76" width="107.05729342699051" height="17.56944465637207" y="42.7" class="syntaxgroupcomp" /><line y2="31.7" x1="431.76" x2="505.29" class="syntaxarrow" y1="31.7" /><line y2="31.7" x1="505.29" x2="578.82" class="syntaxarrow" y1="31.7" /><polygon class="arrowheadAfterChoice" points="573.82,31.7 568.82,34.2 568.82,29.2" /><path class="syntaxarrow" d="M 431.76,31.7 436.76,31.7 436.76,36.7 436.76,46.81 436.76,51.81 441.76,51.81 451.76,51.81" /><polygon class="arrowheadStartChoice" points="451.76,51.81 446.76,54.31 446.76,49.31" /><path class="syntaxarrow" d="M 558.82,51.81 568.82,51.81 573.82,51.81 573.82,46.81 573.82,36.7 573.82,31.7 578.82,31.7" /><polygon class="arrowheadAfterChoice" points="573.82,36.7 568.82,39.2 568.82,34.2" /><text class="syntaxkwd" x="74.0" y="128.95">NUMITEMS(</text><text class="syntaxvar" x="134.37" y="128.95"> data-area</text><text class="syntaxdelim" x="185.63" y="128.95">)</text><rect rx="3" x="70.0" width="122.50971785783769" height="17.56944465637207" y="116.85" class="syntaxgroupcomp" /><line y2="105.85" x1="50.0" x2="131.25" class="syntaxarrow" y1="105.85" /><line y2="105.85" x1="131.25" x2="212.51" class="syntaxarrow" y1="105.85" /><polygon class="arrowheadAfterChoice" points="207.51,105.85 202.51,108.35 202.51,103.35" /><path class="syntaxarrow" d="M 50.0,105.85 55.0,105.85 55.0,110.85 55.0,120.95 55.0,125.95 60.0,125.95 70.0,125.95" /><polygon class="arrowheadStartChoice" points="70.0,125.95 65.0,128.45 65.0,123.45" /><path class="syntaxarrow" d="M 192.51,125.95 202.51,125.95 207.51,125.95 207.51,120.95 207.51,110.85 207.51,105.85 212.51,105.85" /><polygon class="arrowheadAfterChoice" points="207.51,110.85 202.51,113.35 202.51,108.35" /><text class="syntaxkwd" x="282.33" y="90.85">NEXT</text><rect rx="3" x="278.33" width="34.427418613433844" height="15.44444465637207" y="79.4" class="syntaxkwd" /><text class="syntaxkwd" x="251.51" y="128.95">ITEM(</text><text class="syntaxvar" x="281.15" y="128.95"> data-value</text><text class="syntaxdelim" x="336.71" y="128.95">)</text><rect rx="3" x="247.51" width="96.07366954088212" height="17.56944465637207" y="116.85" class="syntaxgroupcomp" /><line y2="105.85" x1="227.51" x2="295.55" class="syntaxarrow" y1="105.85" /><line y2="105.85" x1="295.55" x2="363.58" class="syntaxarrow" y1="105.85" /><polygon class="arrowheadAfterChoice" points="358.58,105.85 353.58,108.35 353.58,103.35" /><path class="syntaxarrow" d="M 227.51,105.85 232.51,105.85 232.51,100.85 232.51,92.85 232.51,87.85 237.51,87.85 278.33,87.85" /><polygon class="arrowheadStartChoice" points="278.33,87.85 273.33,90.35 273.33,85.35" /><path class="syntaxarrow" d="M 312.76,87.85 353.58,87.85 358.58,87.85 358.58,92.85 358.58,100.85 358.58,105.85 363.58,105.85" /><polygon class="arrowheadAfterChoice" points="358.58,100.85 353.58,103.35 353.58,98.35" /><path class="syntaxarrow" d="M 227.51,105.85 232.51,105.85 232.51,110.85 232.51,120.95 232.51,125.95 237.51,125.95 247.51,125.95" /><polygon class="arrowheadStartChoice" points="247.51,125.95 242.51,128.45 242.51,123.45" /><path class="syntaxarrow" d="M 343.58,125.95 353.58,125.95 358.58,125.95 358.58,120.95 358.58,110.85 358.58,105.85 363.58,105.85" /><polygon class="arrowheadAfterChoice" points="358.58,110.85 353.58,113.35 353.58,108.35" /><text class="syntaxkwd" x="402.58" y="128.95">SYSID(</text><text class="syntaxvar" x="437.56" y="128.95"> systemname</text><text class="syntaxdelim" x="501.96" y="128.95">)</text><rect rx="3" x="398.58" width="110.24987918138504" height="18.239583492279053" y="116.85" class="syntaxgroupcomp" /><line y2="105.85" x1="378.58" x2="453.71" class="syntaxarrow" y1="105.85" /><line y2="105.85" x1="453.71" x2="528.83" class="syntaxarrow" y1="105.85" /><polygon class="arrowheadAfterChoice" points="523.83,105.85 518.83,108.35 518.83,103.35" /><path class="syntaxarrow" d="M 378.58,105.85 383.58,105.85 383.58,110.85 383.58,120.95 383.58,125.95 388.58,125.95 398.58,125.95" /><polygon class="arrowheadStartChoice" points="398.58,125.95 393.58,128.45 393.58,123.45" /><path class="syntaxarrow" d="M 508.83,125.95 518.83,125.95 523.83,125.95 523.83,120.95 523.83,110.85 523.83,105.85 528.83,105.85" /><polygon class="arrowheadAfterChoice" points="523.83,110.85 518.83,113.35 518.83,108.35" /><polygon class="arrowheadStartEnd" points="5.0,31.7 0.0,34.2 0.0,29.2" /><polygon class="arrowheadStartEnd" points="10.0,31.7 5.0,34.2 5.0,29.2" /><line y2="31.7" x1="5.0" x2="15.0" class="syntaxarrow" y1="31.7" /><line y2="31.7" x1="132.7" x2="147.7" class="syntaxarrow" y1="31.7" /><polygon class="arrowheadSeq" points="147.7,31.7 142.7,34.2 142.7,29.2" /><line y2="31.7" x1="269.76" x2="284.76" class="syntaxarrow" y1="31.7" /><polygon class="arrowheadSeq" points="284.76,31.7 279.76,34.2 279.76,29.2" /><line y2="31.7" x1="416.76" x2="431.76" class="syntaxarrow" y1="31.7" /><polygon class="arrowheadSeq" points="431.76,31.7 426.76,34.2 426.76,29.2" /><line y2="31.7" x1="578.82" x2="593.82" class="syntaxarrow" y1="31.7" /><polygon class="arrowheadStartEnd" points="593.82,31.7 588.82,34.2 588.82,29.2" /><polygon class="arrowheadStartEnd" points="35.0,105.85 30.0,108.35 30.0,103.35" /><line y2="105.85" x1="35.0" x2="50.0" class="syntaxarrow" y1="105.85" /><line y2="105.85" x1="212.51" x2="227.51" class="syntaxarrow" y1="105.85" /><polygon class="arrowheadSeq" points="227.51,105.85 222.51,108.35 222.51,103.35" /><line y2="105.85" x1="363.58" x2="378.58" class="syntaxarrow" y1="105.85" /><polygon class="arrowheadSeq" points="378.58,105.85 373.58,108.35 373.58,103.35" /><line y2="105.85" x1="528.83" x2="538.83" class="syntaxarrow" y1="105.85" /><polygon class="arrowheadStartEnd" points="538.83,105.85 533.83,108.35 533.83,103.35" /><polygon class="arrowheadStartEnd" points="538.83,105.85 533.83,108.35 533.83,103.35" /><line x1="593.82" y1="31.699999999999992" x2="35.0" y2="105.85" stroke="black" stroke-width="2" class="row-connector" /></svg>