<svg contentscripttype="text/ecmascript" zoomAndPan="magnify" contentstyletype="text/css" version="1.0" width="549.91px" preserveAspectRatio="xMidYMid meet" viewBox="-10.0 -5.0 549.91 86.42944465637207" height="86.42944465637207px" class="syntaxdiagram"><defs><style type="text/css" xml:space="preserve">
.arrow, .syntaxarrow { fill: none; stroke: black; }
.arrowheadStartEnd, .arrowheadRepSep, .arrowheadRepSepReturn { stroke: black; fill: black; }
.arrowheadSeq, .arrowheadStartChoice, .arrowheadAfterChoice, .arrowheadStartRepGroup, .arrowheadEndRepGroup, .arrowheadRev { stroke: none; fill: none; }
rect { fill: none; stroke: none; }
rect.fragref,rect.syntaxfragref { fill: none; stroke: black; }
text {
fill: #000000;
fill-opacity: 1;
font-family: IBM Plex Sans,Arial Unicode MS,Arial,Helvetica;
font-style: normal;
font-weight: normal;
font-size: 8pt;
stroke: #000000;
stroke-width: 0.1;
}
text.var, text.syntaxvar {font-style:italic;}
</style></defs><text class="syntaxkwd" x="19.0" y="17.11">REQUEST PASSTICKET</text><rect rx="3" x="15.0" width="122.85333900451661" height="17.322916984558105" y="5.53" class="syntaxkwd" /><text class="syntaxdelim" x="156.85" y="17.11">(</text><rect rx="3" x="152.85" width="10.876562416553497" height="17.56944465637207" y="5.0" class="syntaxdelim" /><text class="syntaxvar" x="182.73" y="17.11">data-area</text><rect rx="3" x="178.73" width="57.258944511413574" height="16.020833015441895" y="5.22" class="syntaxvar" /><text class="syntaxdelim" x="254.99" y="17.11">)</text><rect rx="3" x="250.99" width="10.876562416553497" height="17.56944465637207" y="5.0" class="syntaxdelim" /><text class="syntaxkwd" x="280.87" y="17.11">ESMAPPNAME</text><rect rx="3" x="276.87" width="79.83002319335938" height="15.70138931274414" y="5.53" class="syntaxkwd" /><text class="syntaxdelim" x="375.7" y="17.11">(</text><rect rx="3" x="371.7" width="10.876562416553497" height="17.56944465637207" y="5.0" class="syntaxdelim" /><text class="syntaxvar" x="401.57" y="17.11">data-area</text><rect rx="3" x="397.57" width="57.258944511413574" height="16.020833015441895" y="5.22" class="syntaxvar" /><text class="syntaxdelim" x="473.83" y="17.11">)</text><rect rx="3" x="469.83" width="10.876562416553497" height="17.56944465637207" y="5.0" class="syntaxdelim" /><text class="syntaxkwd" x="74.0" y="65.97">ESMRESP</text><rect rx="3" x="70.0" width="55.62359466552734" height="15.70138931274414" y="54.39" class="syntaxkwd" /><text class="syntaxdelim" x="144.62" y="65.97">(</text><rect rx="3" x="140.62" width="10.876562416553497" height="17.56944465637207" y="53.86" class="syntaxdelim" /><text class="syntaxvar" x="170.5" y="65.97">data-area</text><rect rx="3" x="166.5" width="57.258944511413574" height="16.020833015441895" y="54.07" class="syntaxvar" /><text class="syntaxdelim" x="242.76" y="65.97">)</text><rect rx="3" x="238.76" width="10.876562416553497" height="17.56944465637207" y="53.86" class="syntaxdelim" /><line y2="62.97" x1="125.62" x2="140.62" class="syntaxarrow" y1="62.97" /><polygon class="arrowheadSeq" points="140.62,62.97 135.62,65.47 135.62,60.47" /><line y2="62.97" x1="151.5" x2="166.5" class="syntaxarrow" y1="62.97" /><polygon class="arrowheadSeq" points="166.5,62.97 161.5,65.47 161.5,60.47" /><line y2="62.97" x1="223.76" x2="238.76" class="syntaxarrow" y1="62.97" /><polygon class="arrowheadSeq" points="238.76,62.97 233.76,65.47 233.76,60.47" /><line y2="42.86" x1="50.0" x2="159.82" class="syntaxarrow" y1="42.86" /><line y2="42.86" x1="159.82" x2="269.64" class="syntaxarrow" y1="42.86" /><polygon class="arrowheadAfterChoice" points="264.64,42.86 259.64,45.36 259.64,40.36" /><path class="syntaxarrow" d="M 50.0,42.86 55.0,42.86 55.0,47.86 55.0,57.97 55.0,62.97 60.0,62.97 70.0,62.97" /><polygon class="arrowheadStartChoice" points="70.0,62.97 65.0,65.47 65.0,60.47" /><path class="syntaxarrow" d="M 249.64,62.97 259.64,62.97 264.64,62.97 264.64,57.97 264.64,47.86 264.64,42.86 269.64,42.86" /><polygon class="arrowheadAfterChoice" points="264.64,47.86 259.64,50.36 259.64,45.36" /><text class="syntaxkwd" x="308.64" y="65.97">ESMREASON</text><rect rx="3" x="304.64" width="71.26483516693116" height="15.70138931274414" y="54.39" class="syntaxkwd" /><text class="syntaxdelim" x="394.9" y="65.97">(</text><rect rx="3" x="390.9" width="10.876562416553497" height="17.56944465637207" y="53.86" class="syntaxdelim" /><text class="syntaxvar" x="420.78" y="65.97">data-area</text><rect rx="3" x="416.78" width="57.258944511413574" height="16.020833015441895" y="54.07" class="syntaxvar" /><text class="syntaxdelim" x="493.04" y="65.97">)</text><rect rx="3" x="489.04" width="10.876562416553497" height="17.56944465637207" y="53.86" class="syntaxdelim" /><line y2="62.97" x1="375.9" x2="390.9" class="syntaxarrow" y1="62.97" /><polygon class="arrowheadSeq" points="390.9,62.97 385.9,65.47 385.9,60.47" /><line y2="62.97" x1="401.78" x2="416.78" class="syntaxarrow" y1="62.97" /><polygon class="arrowheadSeq" points="416.78,62.97 411.78,65.47 411.78,60.47" /><line y2="62.97" x1="474.04" x2="489.04" class="syntaxarrow" y1="62.97" /><polygon class="arrowheadSeq" points="489.04,62.97 484.04,65.47 484.04,60.47" /><line y2="42.86" x1="284.64" x2="402.27" class="syntaxarrow" y1="42.86" /><line y2="42.86" x1="402.27" x2="519.91" class="syntaxarrow" y1="42.86" /><polygon class="arrowheadAfterChoice" points="514.91,42.86 509.91,45.36 509.91,40.36" /><path class="syntaxarrow" d="M 284.64,42.86 289.64,42.86 289.64,47.86 289.64,57.97 289.64,62.97 294.64,62.97 304.64,62.97" /><polygon class="arrowheadStartChoice" points="304.64,62.97 299.64,65.47 299.64,60.47" /><path class="syntaxarrow" d="M 499.91,62.97 509.91,62.97 514.91,62.97 514.91,57.97 514.91,47.86 514.91,42.86 519.91,42.86" /><polygon class="arrowheadAfterChoice" points="514.91,47.86 509.91,50.36 509.91,45.36" /><polygon class="arrowheadStartEnd" points="5.0,14.11 0.0,16.61 0.0,11.61" /><polygon class="arrowheadStartEnd" points="10.0,14.11 5.0,16.61 5.0,11.61" /><line y2="14.11" x1="5.0" x2="15.0" class="syntaxarrow" y1="14.11" /><line y2="14.11" x1="137.85" x2="152.85" class="syntaxarrow" y1="14.11" /><polygon class="arrowheadSeq" points="152.85,14.11 147.85,16.61 147.85,11.61" /><line y2="14.11" x1="163.73" x2="178.73" class="syntaxarrow" y1="14.11" /><polygon class="arrowheadSeq" points="178.73,14.11 173.73,16.61 173.73,11.61" /><line y2="14.11" x1="235.99" x2="250.99" class="syntaxarrow" y1="14.11" /><polygon class="arrowheadSeq" points="250.99,14.11 245.99,16.61 245.99,11.61" /><line y2="14.11" x1="261.87" x2="276.87" class="syntaxarrow" y1="14.11" /><polygon class="arrowheadSeq" points="276.87,14.11 271.87,16.61 271.87,11.61" /><line y2="14.11" x1="356.7" x2="371.7" class="syntaxarrow" y1="14.11" /><polygon class="arrowheadSeq" points="371.7,14.11 366.7,16.61 366.7,11.61" /><line y2="14.11" x1="382.57" x2="397.57" class="syntaxarrow" y1="14.11" /><polygon class="arrowheadSeq" points="397.57,14.11 392.57,16.61 392.57,11.61" /><line y2="14.11" x1="454.83" x2="469.83" class="syntaxarrow" y1="14.11" /><polygon class="arrowheadSeq" points="469.83,14.11 464.83,16.61 464.83,11.61" /><line y2="14.11" x1="480.71" x2="495.71" class="syntaxarrow" y1="14.11" /><polygon class="arrowheadStartEnd" points="495.71,14.11 490.71,16.61 490.71,11.61" /><polygon class="arrowheadStartEnd" points="35.0,42.86 30.0,45.36 30.0,40.36" /><line y2="42.86" x1="35.0" x2="50.0" class="syntaxarrow" y1="42.86" /><line y2="42.86" x1="269.64" x2="284.64" class="syntaxarrow" y1="42.86" /><polygon class="arrowheadSeq" points="284.64,42.86 279.64,45.36 279.64,40.36" /><line y2="42.86" x1="519.91" x2="529.91" class="syntaxarrow" y1="42.86" /><polygon class="arrowheadStartEnd" points="529.91,42.86 524.91,45.36 524.91,40.36" /><polygon class="arrowheadStartEnd" points="529.91,42.86 524.91,45.36 524.91,40.36" /><line x1="495.71" y1="14.11" x2="35.0" y2="42.86000000000001" stroke="black" stroke-width="2" class="row-connector" /></svg>