<svg contentscripttype="text/ecmascript" zoomAndPan="magnify" contentstyletype="text/css" version="1.0" width="642.6944522380829px" preserveAspectRatio="xMidYMid meet" viewBox="0 0 642.6944522380829 47.67708396911621" height="47.67708396911621px" class="syntaxdiagram"><defs><style type="text/css" xml:space="preserve">
.arrow, .syntaxarrow { fill: none; stroke: black; }
.arrowheadStartEnd, .arrowheadRepSep, .arrowheadRepSepReturn { stroke: black; fill: black; }
.arrowheadSeq, .arrowheadStartChoice, .arrowheadAfterChoice, .arrowheadStartRepGroup, .arrowheadEndRepGroup, .arrowheadRev { stroke: none; fill: none; }
rect { fill: none; stroke: none; }
rect.fragref,rect.syntaxfragref { fill: none; stroke: black; }
text {
fill: #000000;
fill-opacity: 1;
font-family: IBM Plex Sans,Arial Unicode MS,Arial,Helvetica;
font-style: normal;
font-weight: normal;
font-size: 8pt;
stroke: #000000;
stroke-width: 0.1;
}
text.var, text.syntaxvar {font-style:italic;}
</style></defs><g transform="translate(5,5)" class="diagram" xml:base="..//"><g transform="translate(10,9.10763931274414)" class="boxed groupcomp"><g transform="translate(4,0)" class="unboxed syntaxkwd"><g class="text" transform="translate(0,3)"><text class="syntaxkwd">GDS&nbsp;ISSUE&nbsp;PREPARE</text></g></g><rect rx="3" x="0" width="113.46889190673829" height="15.70138931274414" y="-8.572916984558105" class="syntaxgroupcomp"></rect></g><g transform="translate(138.4688919067383,9.10763931274414)" class="boxed groupcomp"><g transform="translate(4,0)" class="unboxed syntaxkwd"><g class="text" transform="translate(0,3)"><text class="syntaxkwd">CONVID(</text></g><g class="text" transform="translate(44.76686038970947,3)"><text class="syntaxvar"> name</text></g><g class="text" transform="translate(74.14449367523193,3)"><text class="syntaxdelim">)</text></g></g><rect rx="3" x="0" width="85.02105609178543" height="17.56944465637207" y="-9.10763931274414" class="syntaxgroupcomp"></rect></g><g transform="translate(238.48994799852372,9.10763931274414)" class="boxed groupcomp"><g transform="translate(4,0)" class="unboxed syntaxkwd"><g class="text" transform="translate(0,3)"><text class="syntaxkwd">CONVDATA(</text></g><g class="text" transform="translate(61.047892570495605,3)"><text class="syntaxvar"> data-area</text></g><g class="text" transform="translate(112.30684108734131,3)"><text class="syntaxdelim">)</text></g></g><rect rx="3" x="0" width="123.18340350389481" height="17.56944465637207" y="-9.10763931274414" class="syntaxgroupcomp"></rect></g><g transform="translate(376.67335150241854,9.10763931274414)" class="boxed groupcomp"><g transform="translate(4,0)" class="unboxed syntaxkwd"><g class="text" transform="translate(0,3)"><text class="syntaxkwd">RETCODE(</text></g><g class="text" transform="translate(51.78579540252686,3)"><text class="syntaxvar"> data-area</text></g><g class="text" transform="translate(103.04474391937256,3)"><text class="syntaxdelim">)</text></g></g><rect rx="3" x="0" width="113.92130633592606" height="17.56944465637207" y="-9.10763931274414" class="syntaxgroupcomp"></rect></g><g transform="translate(505.5946578383446,9.10763931274414)" class="groupseq"><g></g><g transform="translate(20,20.10763931274414)" class="boxed groupcomp"><g transform="translate(4,0)" class="unboxed syntaxkwd"><g class="text" transform="translate(0,3)"><text class="syntaxkwd">STATE(</text></g><g class="text" transform="translate(36.3570951461792,3)"><text class="syntaxvar"> cvda</text></g><g class="text" transform="translate(61.22323198318482,3)"><text class="syntaxdelim">)</text></g></g><rect rx="3" x="0" width="72.09979439973831" height="17.56944465637207" y="-9.10763931274414" class="syntaxgroupcomp"></rect></g><line y2="0" x1="0" x2="56.04989719986916" class="syntaxarrow" y1="0"></line><line y2="0" x1="56.04989719986916" x2="112.0997943997383" class="syntaxarrow" y1="0"></line><polygon class="arrowheadAfterChoice" points="107.0997943997383,0 102.0997943997383,2.5 102.0997943997383,-2.5" transform="rotate(0,107.0997943997383,0)"></polygon><path class="syntaxarrow" d="M0 0 Q5 0 5 5 L5 15.10763931274414 Q5 20.10763931274414 10 20.10763931274414 L20 20.10763931274414"></path><polygon class="arrowheadStartChoice" points="20,20.10763931274414 15,22.60763931274414 15,17.60763931274414" transform="rotate(0,20,20.10763931274414)"></polygon><path class="syntaxarrow" d="M92.09979439973831 20.10763931274414 L102.09979439973831 20.10763931274414 Q107.09979439973831 20.10763931274414 107.09979439973831 15.10763931274414 L107.09979439973831 5 Q107.09979439973831 0 112.09979439973831 0"></path><polygon class="arrowheadAfterChoice" points="107.09979439973831,5 102.09979439973831,7.5 102.09979439973831,2.5" transform="rotate(-90,107.09979439973831,5)"></polygon></g><polygon class="arrowheadStartEnd" points="0,9.10763931274414 -5,11.60763931274414 -5,6.607639312744141" transform="rotate(0,0,9.10763931274414)"></polygon><polygon class="arrowheadStartEnd" points="5,9.10763931274414 0,11.60763931274414 0,6.607639312744141" transform="rotate(0,5,9.10763931274414)"></polygon><line y2="9.10763931274414" x1="0" x2="10" class="syntaxarrow" y1="9.10763931274414"></line><line y2="9.10763931274414" x1="123.46889190673829" x2="138.4688919067383" class="syntaxarrow" y1="9.10763931274414"></line><polygon class="arrowheadSeq" points="138.4688919067383,9.10763931274414 133.4688919067383,11.60763931274414 133.4688919067383,6.607639312744141" transform="rotate(0,138.4688919067383,9.10763931274414)"></polygon><line y2="9.10763931274414" x1="223.48994799852372" x2="238.48994799852372" class="syntaxarrow" y1="9.10763931274414"></line><polygon class="arrowheadSeq" points="238.48994799852372,9.10763931274414 233.48994799852372,11.60763931274414 233.48994799852372,6.607639312744141" transform="rotate(0,238.48994799852372,9.10763931274414)"></polygon><line y2="9.10763931274414" x1="361.67335150241854" x2="376.67335150241854" class="syntaxarrow" y1="9.10763931274414"></line><polygon class="arrowheadSeq" points="376.67335150241854,9.10763931274414 371.67335150241854,11.60763931274414 371.67335150241854,6.607639312744141" transform="rotate(0,376.67335150241854,9.10763931274414)"></polygon><line y2="9.10763931274414" x1="490.5946578383446" x2="505.5946578383446" class="syntaxarrow" y1="9.10763931274414"></line><polygon class="arrowheadSeq" points="505.5946578383446,9.10763931274414 500.5946578383446,11.60763931274414 500.5946578383446,6.607639312744141" transform="rotate(0,505.5946578383446,9.10763931274414)"></polygon><line y2="9.10763931274414" x1="617.6944522380829" x2="627.6944522380829" class="syntaxarrow" y1="9.10763931274414"></line><polygon class="arrowheadStartEnd" points="627.6944522380829,9.10763931274414 622.6944522380829,11.60763931274414 622.6944522380829,6.607639312744141" transform="rotate(0,627.6944522380829,9.10763931274414)"></polygon><polygon class="arrowheadStartEnd" points="627.6944522380829,9.10763931274414 622.6944522380829,11.60763931274414 622.6944522380829,6.607639312744141" transform="rotate(180,627.6944522380829,9.10763931274414)"></polygon></g></svg>