<svg contentscripttype="text/ecmascript" zoomAndPan="magnify" contentstyletype="text/css" version="1.0" width="501.3947304129601px" preserveAspectRatio="xMidYMid meet" viewBox="0 0 501.3947304129601 47.67708396911621" height="47.67708396911621px" class="syntaxdiagram"><defs><style type="text/css" xml:space="preserve">
.arrow, .syntaxarrow { fill: none; stroke: black; }
.arrowheadStartEnd, .arrowheadRepSep, .arrowheadRepSepReturn { stroke: black; fill: black; }
.arrowheadSeq, .arrowheadStartChoice, .arrowheadAfterChoice, .arrowheadStartRepGroup, .arrowheadEndRepGroup, .arrowheadRev { stroke: none; fill: none; }
rect { fill: none; stroke: none; }
rect.fragref,rect.syntaxfragref { fill: none; stroke: black; }
text {
fill: #000000;
fill-opacity: 1;
font-family: IBM Plex Sans,Arial Unicode MS,Arial,Helvetica;
font-style: normal;
font-weight: normal;
font-size: 8pt;
stroke: #000000;
stroke-width: 0.1;
}
text.var, text.syntaxvar {font-style:italic;}
</style></defs><g transform="translate(5,5)" class="diagram" xml:base="..//"><g transform="translate(10,9.10763931274414)" class="boxed groupcomp"><g transform="translate(4,0)" class="unboxed syntaxkwd"><g class="text" transform="translate(0,3)"><text class="syntaxkwd">RETRIEVE </text></g></g><rect rx="3" x="0" width="57.86070861816406" height="15.44444465637207" y="-8.44444465637207" class="syntaxgroupcomp"></rect></g><g transform="translate(82.86070861816407,9.10763931274414)" class="boxed groupcomp"><g transform="translate(4,0)" class="unboxed syntaxkwd"><g class="text" transform="translate(0,3)"><text class="syntaxkwd">SUBEVENT(</text></g><g class="text" transform="translate(58.94226894378662,3)"><text class="syntaxvar"> data-area</text></g><g class="text" transform="translate(110.20121746063234,3)"><text class="syntaxdelim">)</text></g></g><rect rx="3" x="0" width="121.07777987718583" height="17.56944465637207" y="-9.10763931274414" class="syntaxgroupcomp"></rect></g><g transform="translate(218.9384884953499,9.10763931274414)" class="boxed groupcomp"><g transform="translate(4,0)" class="unboxed syntaxkwd"><g class="text" transform="translate(0,3)"><text class="syntaxkwd">EVENT(</text></g><g class="text" transform="translate(36.96042537689209,3)"><text class="syntaxvar"> data-value</text></g><g class="text" transform="translate(92.51785144805908,3)"><text class="syntaxdelim">)</text></g></g><rect rx="3" x="0" width="103.39441386461257" height="17.56944465637207" y="-9.10763931274414" class="syntaxgroupcomp"></rect></g><g transform="translate(337.3329023599625,9.10763931274414)" class="groupseq"><g></g><g transform="translate(20.000000000000007,20.10763931274414)" class="boxed groupcomp"><g transform="translate(4,0)" class="unboxed syntaxkwd"><g class="text" transform="translate(0,3)"><text class="syntaxkwd">EVENTTYPE(</text></g><g class="text" transform="translate(63.31912879943848,3)"><text class="syntaxvar"> cvda</text></g><g class="text" transform="translate(88.1852656364441,3)"><text class="syntaxdelim">)</text></g></g><rect rx="3" x="0" width="99.0618280529976" height="17.56944465637207" y="-9.10763931274414" class="syntaxgroupcomp"></rect></g><line y2="0" x1="0" x2="69.5309140264988" class="syntaxarrow" y1="0"></line><line y2="0" x1="69.5309140264988" x2="139.0618280529976" class="syntaxarrow" y1="0"></line><polygon class="arrowheadAfterChoice" points="134.0618280529976,0 129.0618280529976,2.5 129.0618280529976,-2.5" transform="rotate(0,134.0618280529976,0)"></polygon><path class="syntaxarrow" d="M0 0 Q5 0 5 5 L5 15.10763931274414 Q5 20.10763931274414 10 20.10763931274414 L20.000000000000007 20.10763931274414"></path><polygon class="arrowheadStartChoice" points="20.000000000000007,20.10763931274414 15.000000000000007,22.60763931274414 15.000000000000007,17.60763931274414" transform="rotate(0,20.000000000000007,20.10763931274414)"></polygon><path class="syntaxarrow" d="M119.06182805299761 20.10763931274414 L129.0618280529976 20.10763931274414 Q134.0618280529976 20.10763931274414 134.0618280529976 15.10763931274414 L134.0618280529976 5 Q134.0618280529976 0 139.0618280529976 0"></path><polygon class="arrowheadAfterChoice" points="134.0618280529976,5 129.0618280529976,7.5 129.0618280529976,2.5" transform="rotate(-90,134.0618280529976,5)"></polygon></g><polygon class="arrowheadStartEnd" points="0,9.10763931274414 -5,11.60763931274414 -5,6.607639312744141" transform="rotate(0,0,9.10763931274414)"></polygon><polygon class="arrowheadStartEnd" points="5,9.10763931274414 0,11.60763931274414 0,6.607639312744141" transform="rotate(0,5,9.10763931274414)"></polygon><line y2="9.10763931274414" x1="0" x2="10" class="syntaxarrow" y1="9.10763931274414"></line><line y2="9.10763931274414" x1="67.86070861816407" x2="82.86070861816407" class="syntaxarrow" y1="9.10763931274414"></line><polygon class="arrowheadSeq" points="82.86070861816407,9.10763931274414 77.86070861816407,11.60763931274414 77.86070861816407,6.607639312744141" transform="rotate(0,82.86070861816407,9.10763931274414)"></polygon><line y2="9.10763931274414" x1="203.9384884953499" x2="218.9384884953499" class="syntaxarrow" y1="9.10763931274414"></line><polygon class="arrowheadSeq" points="218.9384884953499,9.10763931274414 213.9384884953499,11.60763931274414 213.9384884953499,6.607639312744141" transform="rotate(0,218.9384884953499,9.10763931274414)"></polygon><line y2="9.10763931274414" x1="322.3329023599625" x2="337.3329023599625" class="syntaxarrow" y1="9.10763931274414"></line><polygon class="arrowheadSeq" points="337.3329023599625,9.10763931274414 332.3329023599625,11.60763931274414 332.3329023599625,6.607639312744141" transform="rotate(0,337.3329023599625,9.10763931274414)"></polygon><line y2="9.10763931274414" x1="476.3947304129601" x2="486.3947304129601" class="syntaxarrow" y1="9.10763931274414"></line><polygon class="arrowheadStartEnd" points="486.3947304129601,9.10763931274414 481.3947304129601,11.60763931274414 481.3947304129601,6.607639312744141" transform="rotate(0,486.3947304129601,9.10763931274414)"></polygon><polygon class="arrowheadStartEnd" points="486.3947304129601,9.10763931274414 481.3947304129601,11.60763931274414 481.3947304129601,6.607639312744141" transform="rotate(180,486.3947304129601,9.10763931274414)"></polygon></g></svg>