<svg contentscripttype="text/ecmascript" zoomAndPan="magnify" contentstyletype="text/css" version="1.0" width="550.4271968007088px" preserveAspectRatio="xMidYMid meet" viewBox="0 0 550.4271968007088 98.40277862548828" height="98.40277862548828px" class="syntaxdiagram"><defs><style type="text/css" xml:space="preserve">
.arrow, .syntaxarrow { fill: none; stroke: black; }
.arrowheadStartEnd, .arrowheadRepSep, .arrowheadRepSepReturn { stroke: black; fill: black; }
.arrowheadSeq, .arrowheadStartChoice, .arrowheadAfterChoice, .arrowheadStartRepGroup, .arrowheadEndRepGroup, .arrowheadRev { stroke: none; fill: none; }
rect { fill: none; stroke: none; }
rect.fragref,rect.syntaxfragref { fill: none; stroke: black; }
text {
fill: #000000;
fill-opacity: 1;
font-family: IBM Plex Sans,Arial Unicode MS,Arial,Helvetica;
font-style: normal;
font-weight: normal;
font-size: 8pt;
stroke: #000000;
stroke-width: 0.1;
}
text.var, text.syntaxvar {font-style:italic;}
</style></defs><g transform="translate(5,5)" class="diagram" xml:base="..//"><g transform="translate(10,40)" class="boxed groupcomp"><g transform="translate(4,0)" class="unboxed syntaxkwd"><g class="text" transform="translate(0,3)"><text class="syntaxkwd">SPOOLCLOSE</text></g></g><rect rx="3" x="0" width="75.09485340118408" height="15.70138931274414" y="-8.572916984558105" class="syntaxgroupcomp"></rect></g><g transform="translate(100.09485340118408,40)" class="boxed groupcomp"><g transform="translate(4,0)" class="unboxed syntaxkwd"><g class="text" transform="translate(0,3)"><text class="syntaxkwd">TOKEN(</text></g><g class="text" transform="translate(39.43482913970947,3)"><text class="syntaxvar"> data-area</text></g><g class="text" transform="translate(90.69377765655517,3)"><text class="syntaxdelim">)</text></g></g><rect rx="3" x="0" width="101.57034007310867" height="17.56944465637207" y="-9.10763931274414" class="syntaxgroupcomp"></rect></g><g transform="translate(216.66519347429275,40)" class="groupchoice"><g></g><g transform="translate(25.95023765563965,19.44444465637207)" class="boxed syntaxkwd"><g class="text" transform="translate(4,3)"><text class="syntaxkwd">KEEP</text></g><rect rx="3" x="0" width="33.4527307510376" height="15.44444465637207" y="-8.44444465637207" class="syntaxkwd"></rect></g><g transform="translate(20.000000000000004,40.88888931274414)" class="boxed syntaxkwd"><g class="text" transform="translate(4,3)"><text class="syntaxkwd">DELETE</text></g><rect rx="3" x="0" width="45.35320606231689" height="15.44444465637207" y="-8.44444465637207" class="syntaxkwd"></rect></g><line y2="0" x1="0" x2="42.67660303115845" class="syntaxarrow" y1="0"></line><line y2="0" x1="42.67660303115845" x2="85.3532060623169" class="syntaxarrow" y1="0"></line><polygon class="arrowheadAfterChoice" points="80.3532060623169,0 75.3532060623169,2.5 75.3532060623169,-2.5" transform="rotate(0,80.3532060623169,0)"></polygon><path class="syntaxarrow" d="M0 0 Q5 0 5 5 L5 14.44444465637207 Q5 19.44444465637207 10 19.44444465637207 L25.95023765563965 19.44444465637207"></path><polygon class="arrowheadStartChoice" points="25.95023765563965,19.44444465637207 20.95023765563965,21.94444465637207 20.95023765563965,16.94444465637207" transform="rotate(0,25.95023765563965,19.44444465637207)"></polygon><path class="syntaxarrow" d="M59.402968406677246 19.44444465637207 L75.3532060623169 19.44444465637207 Q80.3532060623169 19.44444465637207 80.3532060623169 14.44444465637207 L80.3532060623169 5 Q80.3532060623169 0 85.3532060623169 0"></path><polygon class="arrowheadAfterChoice" points="80.3532060623169,5 75.3532060623169,7.5 75.3532060623169,2.5" transform="rotate(-90,80.3532060623169,5)"></polygon><path class="syntaxarrow" d="M0 0 Q5 0 5 5 L5 35.88888931274414 Q5 40.88888931274414 10 40.88888931274414 L20.000000000000004 40.88888931274414"></path><polygon class="arrowheadStartChoice" points="20.000000000000004,40.88888931274414 15.000000000000004,43.38888931274414 15.000000000000004,38.38888931274414" transform="rotate(0,20.000000000000004,40.88888931274414)"></polygon><path class="syntaxarrow" d="M65.3532060623169 40.88888931274414 L75.3532060623169 40.88888931274414 Q80.3532060623169 40.88888931274414 80.3532060623169 35.88888931274414 L80.3532060623169 5 Q80.3532060623169 0 85.3532060623169 0"></path><polygon class="arrowheadAfterChoice" points="80.3532060623169,5 75.3532060623169,7.5 75.3532060623169,2.5" transform="rotate(-90,80.3532060623169,5)"></polygon></g><g transform="translate(317.01839953660965,40)" class="groupseq"><g transform="translate(20,0)" class="groupchoice"><g transform="translate(51.83084068298339,0)" class="boxed syntaxkwd"><g class="text" transform="translate(4,3)"><text class="syntaxkwd">NOHANDLE</text></g><rect rx="3" x="0" width="64.74711589813234" height="15.70138931274414" y="-8.572916984558105" class="syntaxkwd"></rect></g><g transform="translate(20,21.70138931274414)" class="groupseq"><g transform="translate(0,0)" class="boxed syntaxkwd"><g class="text" transform="translate(4,3)"><text class="syntaxkwd">RESP</text></g><rect rx="3" x="0" width="33.49752149581909" height="15.70138931274414" y="-8.572916984558105" class="syntaxkwd"></rect></g><g transform="translate(48.49752149581909,0)"><g></g><g transform="translate(20,19.572916984558105)" class="boxed syntaxkwd"><g class="text" transform="translate(4,3)"><text class="syntaxkwd">RESP2</text></g><rect rx="3" x="0" width="39.911275768280035" height="15.70138931274414" y="-8.572916984558105" class="syntaxkwd"></rect></g><line y2="0" x1="0" x2="39.95563788414002" class="syntaxarrow" y1="0"></line><line y2="0" x1="39.95563788414002" x2="79.91127576828003" class="syntaxarrow" y1="0"></line><polygon class="arrowheadAfterChoice" points="74.91127576828003,0 69.91127576828003,2.5 69.91127576828003,-2.5" transform="rotate(0,74.91127576828003,0)"></polygon><path class="syntaxarrow" d="M0 0 Q5 0 5 5 L5 14.572916984558105 Q5 19.572916984558105 10 19.572916984558105 L20 19.572916984558105"></path><polygon class="arrowheadStartChoice" points="20,19.572916984558105 15,22.072916984558105 15,17.072916984558105" transform="rotate(0,20,19.572916984558105)"></polygon><path class="syntaxarrow" d="M59.911275768280035 19.572916984558105 L69.91127576828003 19.572916984558105 Q74.91127576828003 19.572916984558105 74.91127576828003 14.572916984558105 L74.91127576828003 5 Q74.91127576828003 0 79.91127576828003 0"></path><polygon class="arrowheadAfterChoice" points="74.91127576828003,5 69.91127576828003,7.5 69.91127576828003,2.5" transform="rotate(-90,74.91127576828003,5)"></polygon></g><line y2="0" x1="33.49752149581909" x2="48.49752149581909" class="syntaxarrow" y1="0"></line><polygon class="arrowheadSeq" points="48.49752149581909,0 43.49752149581909,2.5 43.49752149581909,-2.5" transform="rotate(0,48.49752149581909,0)"></polygon></g><line y2="0" x1="0" x2="51.83084068298339" class="syntaxarrow" y1="0"></line><polygon class="arrowheadStartChoice" points="51.83084068298339,0 46.83084068298339,2.5 46.83084068298339,-2.5" transform="rotate(0,51.83084068298339,0)"></polygon><line y2="0" x1="116.57795658111573" x2="168.40879726409912" class="syntaxarrow" y1="0"></line><polygon class="arrowheadAfterChoice" points="163.40879726409912,0 158.40879726409912,2.5 158.40879726409912,-2.5" transform="rotate(0,163.40879726409912,0)"></polygon><path class="syntaxarrow" d="M0 0 Q5 0 5 5 L5 16.70138931274414 Q5 21.70138931274414 10 21.70138931274414 L20 21.70138931274414"></path><polygon class="arrowheadStartChoice" points="20,21.70138931274414 15,24.20138931274414 15,19.20138931274414" transform="rotate(0,20,21.70138931274414)"></polygon><path class="syntaxarrow" d="M148.40879726409912 21.70138931274414 L158.40879726409912 21.70138931274414 Q163.40879726409912 21.70138931274414 163.40879726409912 16.70138931274414 L163.40879726409912 5 Q163.40879726409912 0 168.40879726409912 0"></path><polygon class="arrowheadAfterChoice" points="163.40879726409912,5 158.40879726409912,7.5 158.40879726409912,2.5" transform="rotate(-90,163.40879726409912,5)"></polygon></g><line y2="0" x1="0" x2="20" class="syntaxarrow" y1="0"></line><polygon class="arrowheadStartRepGroup" points="20,0 15,2.5 15,-2.5" transform="rotate(0,20,0)"></polygon><line y2="0" x1="188.40879726409912" x2="208.40879726409912" class="syntaxarrow" y1="0"></line><polygon class="arrowheadEndRepGroup" points="198.40879726409912,0 193.40879726409912,2.5 193.40879726409912,-2.5" transform="rotate(0,198.40879726409912,0)"></polygon><path class="syntaxarrow" d="M198.40879726409912 0 Q208.40879726409912 0 208.40879726409912 -10 L208.40879726409912 -25 Q208.40879726409912 -35 198.40879726409912 -35 L104.20439863204956,-35"></path><polygon class="arrowheadRepSep" points="104.20439863204956,-35 99.20439863204956,-32.5 99.20439863204956,-37.5" transform="rotate(180,104.20439863204956,-35)"></polygon><path class="syntaxarrow" d="M104.20439863204956 -35 L10 -35 Q0 -35 0 -25 L0 -10 Q0 0 10 0"></path><polygon class="arrowheadRepSepReturn" points="0,-10 -5,-7.5 -5,-12.5" transform="rotate(90,0,-10)"></polygon></g><polygon class="arrowheadStartEnd" points="0,40 -5,42.5 -5,37.5" transform="rotate(0,0,40)"></polygon><polygon class="arrowheadStartEnd" points="5,40 0,42.5 0,37.5" transform="rotate(0,5,40)"></polygon><line y2="40" x1="0" x2="10" class="syntaxarrow" y1="40"></line><line y2="40" x1="85.09485340118408" x2="100.09485340118408" class="syntaxarrow" y1="40"></line><polygon class="arrowheadSeq" points="100.09485340118408,40 95.09485340118408,42.5 95.09485340118408,37.5" transform="rotate(0,100.09485340118408,40)"></polygon><line y2="40" x1="201.66519347429275" x2="216.66519347429275" class="syntaxarrow" y1="40"></line><polygon class="arrowheadSeq" points="216.66519347429275,40 211.66519347429275,42.5 211.66519347429275,37.5" transform="rotate(0,216.66519347429275,40)"></polygon><line y2="40" x1="302.01839953660965" x2="317.01839953660965" class="syntaxarrow" y1="40"></line><polygon class="arrowheadSeq" points="317.01839953660965,40 312.01839953660965,42.5 312.01839953660965,37.5" transform="rotate(0,317.01839953660965,40)"></polygon><line y2="40" x1="525.4271968007088" x2="535.4271968007088" class="syntaxarrow" y1="40"></line><polygon class="arrowheadStartEnd" points="535.4271968007088,40 530.4271968007088,42.5 530.4271968007088,37.5" transform="rotate(0,535.4271968007088,40)"></polygon><polygon class="arrowheadStartEnd" points="535.4271968007088,40 530.4271968007088,42.5 530.4271968007088,37.5" transform="rotate(180,535.4271968007088,40)"></polygon></g></svg>