<svg contentscripttype="text/ecmascript" zoomAndPan="magnify" contentstyletype="text/css" version="1.0" width="713.8923313617706px" preserveAspectRatio="xMidYMid meet" viewBox="0 0 713.8923313617706 27.85763931274414" height="27.85763931274414px" class="syntaxdiagram"><defs><style type="text/css" xml:space="preserve">
.arrow, .syntaxarrow { fill: none; stroke: black; }
.arrowheadStartEnd, .arrowheadRepSep, .arrowheadRepSepReturn { stroke: black; fill: black; }
.arrowheadSeq, .arrowheadStartChoice, .arrowheadAfterChoice, .arrowheadStartRepGroup, .arrowheadEndRepGroup, .arrowheadRev { stroke: none; fill: none; }
rect { fill: none; stroke: none; }
rect.fragref,rect.syntaxfragref { fill: none; stroke: black; }
text {
fill: #000000;
fill-opacity: 1;
font-family: IBM Plex Sans,Arial Unicode MS,Arial,Helvetica;
font-style: normal;
font-weight: normal;
font-size: 8pt;
stroke: #000000;
stroke-width: 0.1;
}
text.var, text.syntaxvar {font-style:italic;}
</style></defs><g transform="translate(5,5)" class="diagram" xml:base="..//"><g transform="translate(10,9.10763931274414)" class="boxed groupcomp"><g transform="translate(4,0)" class="unboxed syntaxkwd"><g class="text" transform="translate(0,3)"><text class="syntaxkwd">WEB</text></g></g><rect rx="3" x="0" width="30.888833618164064" height="15.44444465637207" y="-8.44444465637207" class="syntaxgroupcomp"></rect></g><g transform="translate(55.888833618164064,9.10763931274414)" class="boxed groupcomp"><g transform="translate(4,0)" class="unboxed syntaxkwd"><g class="text" transform="translate(0,3)"><text class="syntaxkwd">READNEXT</text></g></g><rect rx="3" x="0" width="62.81284866333008" height="15.44444465637207" y="-8.44444465637207" class="syntaxgroupcomp"></rect></g><g transform="translate(133.70168228149413,9.10763931274414)" class="boxed groupcomp"><g transform="translate(4,0)" class="unboxed syntaxkwd"><g class="text" transform="translate(0,3)"><text class="syntaxkwd">QUERYPARM(</text></g><g class="text" transform="translate(69.2331974029541,3)"><text class="syntaxvar"> data-area</text></g><g class="text" transform="translate(120.49214591979981,3)"><text class="syntaxdelim">)</text></g></g><rect rx="3" x="0" width="131.3687083363533" height="17.85763931274414" y="-9.10763931274414" class="syntaxgroupcomp"></rect></g><g transform="translate(280.07039061784747,9.10763931274414)" class="boxed groupcomp"><g transform="translate(4,0)" class="unboxed syntaxkwd"><g class="text" transform="translate(0,3)"><text class="syntaxkwd">NAMELENGTH(</text></g><g class="text" transform="translate(75.63627319335937,3)"><text class="syntaxvar"> data-area</text></g><g class="text" transform="translate(126.89522171020508,3)"><text class="syntaxdelim">)</text></g></g><rect rx="3" x="0" width="137.77178412675858" height="17.56944465637207" y="-9.10763931274414" class="syntaxgroupcomp"></rect></g><g transform="translate(432.84217474460604,9.10763931274414)" class="boxed groupcomp"><g transform="translate(4,0)" class="unboxed syntaxkwd"><g class="text" transform="translate(0,3)"><text class="syntaxkwd">VALUE(</text></g><g class="text" transform="translate(37.31044807434082,3)"><text class="syntaxvar"> data-area</text></g><g class="text" transform="translate(88.56939659118652,3)"><text class="syntaxdelim">)</text></g></g><rect rx="3" x="0" width="99.44595900774002" height="17.56944465637207" y="-9.10763931274414" class="syntaxgroupcomp"></rect></g><g transform="translate(547.2881337523461,9.10763931274414)" class="boxed groupcomp"><g transform="translate(4,0)" class="unboxed syntaxkwd"><g class="text" transform="translate(0,3)"><text class="syntaxkwd">VALUELENGTH(</text></g><g class="text" transform="translate(79.4686866760254,3)"><text class="syntaxvar"> data-area</text></g><g class="text" transform="translate(130.7276351928711,3)"><text class="syntaxdelim">)</text></g></g><rect rx="3" x="0" width="141.6041976094246" height="17.56944465637207" y="-9.10763931274414" class="syntaxgroupcomp"></rect></g><polygon class="arrowheadStartEnd" points="0,9.10763931274414 -5,11.60763931274414 -5,6.607639312744141" transform="rotate(0,0,9.10763931274414)"></polygon><polygon class="arrowheadStartEnd" points="5,9.10763931274414 0,11.60763931274414 0,6.607639312744141" transform="rotate(0,5,9.10763931274414)"></polygon><line y2="9.10763931274414" x1="0" x2="10" class="syntaxarrow" y1="9.10763931274414"></line><line y2="9.10763931274414" x1="40.888833618164064" x2="55.888833618164064" class="syntaxarrow" y1="9.10763931274414"></line><polygon class="arrowheadSeq" points="55.888833618164064,9.10763931274414 50.888833618164064,11.60763931274414 50.888833618164064,6.607639312744141" transform="rotate(0,55.888833618164064,9.10763931274414)"></polygon><line y2="9.10763931274414" x1="118.70168228149414" x2="133.70168228149413" class="syntaxarrow" y1="9.10763931274414"></line><polygon class="arrowheadSeq" points="133.70168228149413,9.10763931274414 128.70168228149413,11.60763931274414 128.70168228149413,6.607639312744141" transform="rotate(0,133.70168228149413,9.10763931274414)"></polygon><line y2="9.10763931274414" x1="265.07039061784747" x2="280.07039061784747" class="syntaxarrow" y1="9.10763931274414"></line><polygon class="arrowheadSeq" points="280.07039061784747,9.10763931274414 275.07039061784747,11.60763931274414 275.07039061784747,6.607639312744141" transform="rotate(0,280.07039061784747,9.10763931274414)"></polygon><line y2="9.10763931274414" x1="417.84217474460604" x2="432.84217474460604" class="syntaxarrow" y1="9.10763931274414"></line><polygon class="arrowheadSeq" points="432.84217474460604,9.10763931274414 427.84217474460604,11.60763931274414 427.84217474460604,6.607639312744141" transform="rotate(0,432.84217474460604,9.10763931274414)"></polygon><line y2="9.10763931274414" x1="532.2881337523461" x2="547.2881337523461" class="syntaxarrow" y1="9.10763931274414"></line><polygon class="arrowheadSeq" points="547.2881337523461,9.10763931274414 542.2881337523461,11.60763931274414 542.2881337523461,6.607639312744141" transform="rotate(0,547.2881337523461,9.10763931274414)"></polygon><line y2="9.10763931274414" x1="688.8923313617706" x2="698.8923313617706" class="syntaxarrow" y1="9.10763931274414"></line><polygon class="arrowheadStartEnd" points="698.8923313617706,9.10763931274414 693.8923313617706,11.60763931274414 693.8923313617706,6.607639312744141" transform="rotate(0,698.8923313617706,9.10763931274414)"></polygon><polygon class="arrowheadStartEnd" points="698.8923313617706,9.10763931274414 693.8923313617706,11.60763931274414 693.8923313617706,6.607639312744141" transform="rotate(180,698.8923313617706,9.10763931274414)"></polygon></g></svg>